{"title":"Fugly 2014 Hindi 720p HDRip x264 AC3 5.1...Hon3y","uid":11155314,"size":1286132570,"categoryP":"video","categoryS":"hd___movies","magnet":"?xt=urn:btih:08860a80cd0b142ce84f71b37b3182e22faf69dd&amp;dn=Fugly+2014+Hindi+720p+HDRip+x264+AC3+5.1...Hon3y&amp;tr=udp%3A%2F%2Ftracker.openbittorrent.com%3A80&amp;tr=udp%3A%2F%2Fopen.demonii.com%3A1337&amp;tr=udp%3A%2F%2Ftracker.coppersurfer.tk%3A6969&amp;tr=udp%3A%2F%2Fexodus.desync.com%3A6969","seeders":34,"leechers":9,"uploader":"honey8ee","files":3,"time":1412407360,"description":"Source :1080p WEB-HD TNT\nFormat                                   : Matroska\nFormat version                           : Version 4 / Version 2\nFile size                                : 1.20 GiB\nDuration                                 : 2h 9mn\nOverall bit rate                         : 1 321 Kbps\nMovie name                               : Fugly 2014 Hindi 720p HDRip x264 AC3 5.1...Hon3y\n\nVideo\nID                                       : 2\nFormat                                   : AVC\nFormat/Info                              : Advanced Video Codec\nFormat profile                           : &lt;a class=&quot;__cf_email__&quot; href=&quot;/cdn-cgi/l/email-protection&quot; data-cfemail=&quot;d991b0beb19995edf7e8&quot;&gt;[email&amp;#160;protected]&lt;/a&gt;&lt;script cf-hash='f9e31' type=&quot;text/javascript&quot;&gt;\n/* &lt;![CDATA[ */!function(){try{var t=&quot;currentScript&quot;in document?document.currentScript:function(){for(var t=document.getElementsByTagName(&quot;script&quot;),e=t.length;e--;)if(t[e].getAttribute(&quot;cf-hash&quot;))return t[e]}();if(t&amp;&amp;t.previousSibling){var e,r,n,i,c=t.previousSibling,a=c.getAttribute(&quot;data-cfemail&quot;);if(a){for(e=&quot;&quot;,r=parseInt(a.substr(0,2),16),n=2;a.length-n;n+=2)i=parseInt(a.substr(n,2),16)^r,e+=String.fromCharCode(i);e=document.createTextNode(e),c.parentNode.replaceChild(e,c)}}}catch(u){}}();/* ]]&gt; */&lt;/script&gt;\nFormat settings, CABAC                   : Yes\nFormat settings, ReFrames                : 12 frames\nCodec ID                                 : V_MPEG4/ISO/AVC\nDuration                                 : 2h 9mn\nBit rate                                 : 1 095 Kbps\nWidth                                    : 1 280 pixels\nHeight                                   : 544 pixels\nDisplay aspect ratio                     : 2.35:1\nFrame rate mode                          : Constant\nFrame rate                               : 25.000 fps\nColor space                              : YUV\nChroma subsampling                       : 4:2:0\nBit depth                                : 8 bits\nScan type                                : Progressive\nBits/(Pixel*Frame)                       : 0.063\nStream size                              : 994 MiB (81%)\nTitle                                    : Bh@iyo888@Hon3yHD\nWriting library                          : x264 \n\n\nAudio\nID                                       : 1\nFormat                                   : AC-3\nFormat/Info                              : Audio Coding 3\nMode extension                           : CM (complete main)\nFormat settings, Endianness              : Big\nCodec ID                                 : A_AC3\nDuration                                 : 2h 9mn\nBit rate mode                            : Constant\nBit rate                                 : 224 Kbps\nChannel count                            : 6 channels\nChannel positions                        : Front: L C R, Side: L R, LFE\nSampling rate                            : 48.0 KHz\nBit depth                                : 16 bits\nCompression mode                         : Lossy\nStream size                              : 208 MiB (17%)\nTitle                                    : Bh@iyo888@Hon3yHD\nDefault                                  : Yes\nForced                                   : No\n &lt;a href=&quot;\nhttp://www.hon3yhd.com/index.php?page=torrent-details&amp;id=08860a80cd0b142ce84f71b37b3182e22faf69dd&quot; rel=&quot;nofollow&quot; target=&quot;_NEW&quot;&gt;\nhttp://www.hon3yhd.com/index.php?page=torrent-details&amp;id=08860a80cd0b142ce84f71b37b3182e22faf69dd&lt;/a&gt;","torrent":{"xt":"urn:btih:08860a80cd0b142ce84f71b37b3182e22faf69dd","amp;dn":"Fugly+2014+Hindi+720p+HDRip+x264+AC3+5.1...Hon3y","amp;tr":["udp%3A%2F%2Ftracker.openbittorrent.com%3A80","udp%3A%2F%2Fopen.demonii.com%3A1337","udp%3A%2F%2Ftracker.coppersurfer.tk%3A6969","udp%3A%2F%2Fexodus.desync.com%3A6969"],"infoHash":"08860a80cd0b142ce84f71b37b3182e22faf69dd","infoHashBuffer":{"type":"Buffer","data":[8,134,10,128,205,11,20,44,232,79,113,179,123,49,130,226,47,175,105,221]},"announce":[],"urlList":[]}}